# xmcd
#
# Track frame offsets:
#	150
#	28490
#	56909
#	89170
#	110664
#	137339
#	164703
#	203700
#	229795
#	249390
#
# Disc length: 3480 seconds
#
# Revision: 1
# Processed by: cddbd v1.5.1PL0 Copyright (c) Steve Scherf et al.
# Submitted via: audiograbber 1.82.02
#
DISCID=940d960a
DTITLE=Mystery Train - Love Lost
DYEAR=1900
DGENRE=Blues
TTITLE0=I Need You
TTITLE1=Your Loss Now
TTITLE2=I'm All Alone
TTITLE3=Where Were You Baby
TTITLE4=Allman Joy
TTITLE5=Hold It Right There
TTITLE6=Love Is Rough Business
TTITLE7=Come On Back To Me
TTITLE8=I'll Never Turn My Back On You
TTITLE9=Cold Wind
EXTD=
EXTT0=
EXTT1=
EXTT2=
EXTT3=
EXTT4=
EXTT5=
EXTT6=
EXTT7=
EXTT8=
EXTT9=
PLAYORDER=
